<?xml version="1.0" encoding="UTF-8" standalone="no"?>
<svg width="32" height="32" viewBox="0 0 32 32" fill="none" xmlns="http://www.w3.org/2000/svg">
  <circle cx="16" cy="16" r="15" fill="url(#paint0_linear)" />
  <path d="M21.5 9H10.5C9.67157 9 9 9.67157 9 10.5V21.5C9 22.3284 9.67157 23 10.5 23H21.5C22.3284 23 23 22.3284 23 21.5V10.5C23 9.67157 22.3284 9 21.5 9Z" fill="white" />
  <path d="M16 12C16 12 12 15 12 16C12 17 13.5 18 16 18C18.5 18 20 17 20 16C20 15 16 12 16 12Z" fill="url(#paint1_linear)" />
  <path d="M16 12V18C18.5 18 20 17 20 16C20 15 16 12 16 12Z" fill="url(#paint2_linear)" />
  <defs>
    <linearGradient id="paint0_linear" x1="4.76837e-07" y1="4.76837e-07" x2="32" y2="32" gradientUnits="userSpaceOnUse">
      <stop stop-color="#0088FF" />
      <stop offset="1" stop-color="#9933FF" />
    </linearGradient>
    <linearGradient id="paint1_linear" x1="12" y1="12" x2="20" y2="18" gradientUnits="userSpaceOnUse">
      <stop stop-color="#0088FF" />
      <stop offset="1" stop-color="#9933FF" />
    </linearGradient>
    <linearGradient id="paint2_linear" x1="16" y1="12" x2="20" y2="18" gradientUnits="userSpaceOnUse">
      <stop stop-color="#0088FF" />
      <stop offset="1" stop-color="#9933FF" />
    </linearGradient>
  </defs>
</svg>
